<mxfile host="app.diagrams.net" modified="2021-08-29T12:27:56.448Z" agent="5.0 (Macintosh; Intel Mac OS X 10_15_7) AppleWebKit/537.36 (KHTML, like Gecko) Chrome/92.0.4515.159 Safari/537.36" etag="rNmvn9UMoLsM_fUU2XNv" version="15.0.3" type="github">
  <diagram id="7xiPTXz7BkMpzJNqHjJ_" name="Page-1">
    <mxGraphModel dx="1043" dy="670" grid="1" gridSize="10" guides="1" tooltips="1" connect="1" arrows="1" fold="1" page="1" pageScale="1" pageWidth="827" pageHeight="1169" math="0" shadow="0">
      <root>
        <mxCell id="0" />
        <mxCell id="1" parent="0" />
        <mxCell id="wQRTPKifDp7-bHwNGF8D-1" value="bbt_order" style="swimlane;childLayout=stackLayout;horizontal=1;startSize=30;horizontalStack=0;rounded=1;fontSize=14;fontStyle=0;strokeWidth=2;resizeParent=0;resizeLast=1;shadow=0;dashed=0;align=center;" vertex="1" collapsed="1" parent="1">
          <mxGeometry x="480" y="200" width="90" height="30" as="geometry">
            <mxRectangle x="270" y="280" width="270" height="700" as="alternateBounds" />
          </mxGeometry>
        </mxCell>
        <mxCell id="wQRTPKifDp7-bHwNGF8D-2" value="orderId 子订单号&#xa;packageId&#xa;orderParentId 万物主订单号&#xa;userId 用户ID&#xa;adminId 管理用户ID&#xa;storeId 商家ID&#xa;payType 付款方式&#xa;orderType 订单类型&#xa;orderStatus 订单状态&#xa;payStatus 付款状态&#xa;expressStatus 物流状态&#xa;procureId 采购单id&#xa;userNote 用户备注&#xa;createTime&#xa;payTime 付款时间&#xa;lastPayTime 最晚支付时间&#xa;updateTime&#xa;totalPrice 总金额&#xa;expressPrice 物流金额&#xa;couponPrice 优惠券金额&#xa;brandCouponPrice 品牌券金额&#xa;promotionPrice 优惠金额&#xa;promotionCodePrice 优惠码抵扣价格&#xa;abroadPrice 国外分账&#xa;domesticPrice 国内分账&#xa;realName 真实姓名&#xa;mobile 手机号&#xa;address 地址&#xa;backPic&#xa;frontPic&#xa;cardId&#xa;addId 选中地址id&#xa;supplierId 供应商ID&#xa;state&#xa;fromOrderId&#xa;flag&#xa;clientType 下单的客户端类型&#xa;stepStatus 流程状态&#xa;userSignTime 用户签收时间&#xa;manuaStatus 人工设置的一些状态&#xa;orderTime 下单时间&#xa;groupId&#xa;groupStatus&#xa;sellId&#xa;deliveryId&#xa;balancePrice&#xa;thirdPayPrice" style="align=left;strokeColor=none;fillColor=none;spacingLeft=4;fontSize=12;verticalAlign=top;resizable=0;rotatable=0;part=1;" vertex="1" parent="wQRTPKifDp7-bHwNGF8D-1">
          <mxGeometry y="30" width="90" as="geometry" />
        </mxCell>
        <mxCell id="wQRTPKifDp7-bHwNGF8D-104" value="order说明" style="shape=table;startSize=30;container=1;collapsible=0;childLayout=tableLayout;strokeWidth=2;" vertex="1" parent="1">
          <mxGeometry x="20" y="20" width="280" height="150" as="geometry" />
        </mxCell>
        <mxCell id="wQRTPKifDp7-bHwNGF8D-105" value="" style="shape=partialRectangle;collapsible=0;dropTarget=0;pointerEvents=0;fillColor=none;top=0;left=0;bottom=0;right=0;points=[[0,0.5],[1,0.5]];portConstraint=eastwest;strokeWidth=2;" vertex="1" parent="wQRTPKifDp7-bHwNGF8D-104">
          <mxGeometry y="30" width="280" height="30" as="geometry" />
        </mxCell>
        <mxCell id="wQRTPKifDp7-bHwNGF8D-106" value="表名" style="shape=partialRectangle;html=1;whiteSpace=wrap;connectable=0;overflow=hidden;fillColor=none;top=0;left=0;bottom=0;right=0;pointerEvents=1;strokeWidth=2;" vertex="1" parent="wQRTPKifDp7-bHwNGF8D-105">
          <mxGeometry width="93" height="30" as="geometry" />
        </mxCell>
        <mxCell id="wQRTPKifDp7-bHwNGF8D-107" value="说明" style="shape=partialRectangle;html=1;whiteSpace=wrap;connectable=0;overflow=hidden;fillColor=none;top=0;left=0;bottom=0;right=0;pointerEvents=1;strokeWidth=2;" vertex="1" parent="wQRTPKifDp7-bHwNGF8D-105">
          <mxGeometry x="93" width="94" height="30" as="geometry" />
        </mxCell>
        <mxCell id="wQRTPKifDp7-bHwNGF8D-108" value="备注" style="shape=partialRectangle;html=1;whiteSpace=wrap;connectable=0;overflow=hidden;fillColor=none;top=0;left=0;bottom=0;right=0;pointerEvents=1;strokeWidth=2;" vertex="1" parent="wQRTPKifDp7-bHwNGF8D-105">
          <mxGeometry x="187" width="93" height="30" as="geometry" />
        </mxCell>
        <mxCell id="wQRTPKifDp7-bHwNGF8D-109" value="" style="shape=partialRectangle;collapsible=0;dropTarget=0;pointerEvents=0;fillColor=none;top=0;left=0;bottom=0;right=0;points=[[0,0.5],[1,0.5]];portConstraint=eastwest;strokeWidth=2;" vertex="1" parent="wQRTPKifDp7-bHwNGF8D-104">
          <mxGeometry y="60" width="280" height="30" as="geometry" />
        </mxCell>
        <mxCell id="wQRTPKifDp7-bHwNGF8D-110" value="bbt_order" style="shape=partialRectangle;html=1;whiteSpace=wrap;connectable=0;overflow=hidden;fillColor=none;top=0;left=0;bottom=0;right=0;pointerEvents=1;strokeWidth=2;" vertex="1" parent="wQRTPKifDp7-bHwNGF8D-109">
          <mxGeometry width="93" height="30" as="geometry" />
        </mxCell>
        <mxCell id="wQRTPKifDp7-bHwNGF8D-111" value="订单表" style="shape=partialRectangle;html=1;whiteSpace=wrap;connectable=0;overflow=hidden;fillColor=none;top=0;left=0;bottom=0;right=0;pointerEvents=1;strokeWidth=2;" vertex="1" parent="wQRTPKifDp7-bHwNGF8D-109">
          <mxGeometry x="93" width="94" height="30" as="geometry" />
        </mxCell>
        <mxCell id="wQRTPKifDp7-bHwNGF8D-112" value="" style="shape=partialRectangle;html=1;whiteSpace=wrap;connectable=0;overflow=hidden;fillColor=none;top=0;left=0;bottom=0;right=0;pointerEvents=1;strokeWidth=2;" vertex="1" parent="wQRTPKifDp7-bHwNGF8D-109">
          <mxGeometry x="187" width="93" height="30" as="geometry" />
        </mxCell>
        <mxCell id="wQRTPKifDp7-bHwNGF8D-113" value="" style="shape=partialRectangle;collapsible=0;dropTarget=0;pointerEvents=0;fillColor=none;top=0;left=0;bottom=0;right=0;points=[[0,0.5],[1,0.5]];portConstraint=eastwest;strokeWidth=2;" vertex="1" parent="wQRTPKifDp7-bHwNGF8D-104">
          <mxGeometry y="90" width="280" height="30" as="geometry" />
        </mxCell>
        <mxCell id="wQRTPKifDp7-bHwNGF8D-114" value="" style="shape=partialRectangle;html=1;whiteSpace=wrap;connectable=0;overflow=hidden;fillColor=none;top=0;left=0;bottom=0;right=0;pointerEvents=1;strokeWidth=2;" vertex="1" parent="wQRTPKifDp7-bHwNGF8D-113">
          <mxGeometry width="93" height="30" as="geometry" />
        </mxCell>
        <mxCell id="wQRTPKifDp7-bHwNGF8D-115" value="" style="shape=partialRectangle;html=1;whiteSpace=wrap;connectable=0;overflow=hidden;fillColor=none;top=0;left=0;bottom=0;right=0;pointerEvents=1;strokeWidth=2;" vertex="1" parent="wQRTPKifDp7-bHwNGF8D-113">
          <mxGeometry x="93" width="94" height="30" as="geometry" />
        </mxCell>
        <mxCell id="wQRTPKifDp7-bHwNGF8D-116" value="" style="shape=partialRectangle;html=1;whiteSpace=wrap;connectable=0;overflow=hidden;fillColor=none;top=0;left=0;bottom=0;right=0;pointerEvents=1;strokeWidth=2;" vertex="1" parent="wQRTPKifDp7-bHwNGF8D-113">
          <mxGeometry x="187" width="93" height="30" as="geometry" />
        </mxCell>
        <mxCell id="wQRTPKifDp7-bHwNGF8D-117" value="" style="shape=partialRectangle;collapsible=0;dropTarget=0;pointerEvents=0;fillColor=none;top=0;left=0;bottom=0;right=0;points=[[0,0.5],[1,0.5]];portConstraint=eastwest;strokeWidth=2;" vertex="1" parent="wQRTPKifDp7-bHwNGF8D-104">
          <mxGeometry y="120" width="280" height="30" as="geometry" />
        </mxCell>
        <mxCell id="wQRTPKifDp7-bHwNGF8D-118" value="" style="shape=partialRectangle;html=1;whiteSpace=wrap;connectable=0;overflow=hidden;fillColor=none;top=0;left=0;bottom=0;right=0;pointerEvents=1;strokeWidth=2;" vertex="1" parent="wQRTPKifDp7-bHwNGF8D-117">
          <mxGeometry width="93" height="30" as="geometry" />
        </mxCell>
        <mxCell id="wQRTPKifDp7-bHwNGF8D-119" value="" style="shape=partialRectangle;html=1;whiteSpace=wrap;connectable=0;overflow=hidden;fillColor=none;top=0;left=0;bottom=0;right=0;pointerEvents=1;strokeWidth=2;" vertex="1" parent="wQRTPKifDp7-bHwNGF8D-117">
          <mxGeometry x="93" width="94" height="30" as="geometry" />
        </mxCell>
        <mxCell id="wQRTPKifDp7-bHwNGF8D-120" value="" style="shape=partialRectangle;html=1;whiteSpace=wrap;connectable=0;overflow=hidden;fillColor=none;top=0;left=0;bottom=0;right=0;pointerEvents=1;strokeWidth=2;" vertex="1" parent="wQRTPKifDp7-bHwNGF8D-117">
          <mxGeometry x="187" width="93" height="30" as="geometry" />
        </mxCell>
        <mxCell id="wQRTPKifDp7-bHwNGF8D-121" value="bbt_return" style="swimlane;childLayout=stackLayout;horizontal=1;startSize=30;horizontalStack=0;rounded=1;fontSize=14;fontStyle=0;strokeWidth=2;resizeParent=0;resizeLast=1;shadow=0;dashed=0;align=center;" vertex="1" collapsed="1" parent="1">
          <mxGeometry x="50" y="290" width="100" height="30" as="geometry">
            <mxRectangle x="50" y="290" width="180" height="450" as="alternateBounds" />
          </mxGeometry>
        </mxCell>
        <mxCell id="wQRTPKifDp7-bHwNGF8D-122" value="id&#xa;orderId 万物子订单&#xa;orderParentId 万物主订单&#xa;returnStatus 退货状态&#xa;returnType 退货类型&#xa;userId&#xa;expressNo&#xa;expressId 快递公司ID&#xa;expressName 快递公司名称&#xa;createAdminId 创建人&#xa;userNote 用户备注&#xa;auditTime 审核时间&#xa;createTime&#xa;qualityTime 质检时间&#xa;updateTime&#xa;warehouseId&#xa;checkTime 寄回已验收时间&#xa;returnTime 用户寄回时间&#xa;supplierId 供应商ID&#xa;remark 商家备注&#xa;pushStatus 推送状态&#xa;signTime 签收时间&#xa;returnAddress 退货地址&#xa;checkUserId 验收人&#xa;freightType 运费补偿类型&#xa;planCheckTime 预计验收时间&#xa;arbitrationStatus 仲裁状态&#xa;extInfo 退货单扩展&#xa;sellId 分销商ID" style="align=left;strokeColor=none;fillColor=none;spacingLeft=4;fontSize=12;verticalAlign=top;resizable=0;rotatable=0;part=1;" vertex="1" parent="wQRTPKifDp7-bHwNGF8D-121">
          <mxGeometry y="30" width="100" as="geometry" />
        </mxCell>
        <mxCell id="wQRTPKifDp7-bHwNGF8D-127" value="after_sale_apply" style="swimlane;childLayout=stackLayout;horizontal=1;startSize=30;horizontalStack=0;rounded=1;fontSize=14;fontStyle=0;strokeWidth=2;resizeParent=0;resizeLast=1;shadow=0;dashed=0;align=center;" vertex="1" collapsed="1" parent="1">
          <mxGeometry x="90" y="390" width="140" height="30" as="geometry">
            <mxRectangle x="300" y="430" width="190" height="450" as="alternateBounds" />
          </mxGeometry>
        </mxCell>
        <mxCell id="wQRTPKifDp7-bHwNGF8D-128" value="applyId&#xa;orderId 订单ID&#xa;orderParentId&#xa;supplierId 供应商ID&#xa;pushStatus WAIT SUCC FAIL&#xa;confirmStatus&#xa;orderItemId 订单商品Id&#xa;applyStatus 申请状态&#xa;blockStatus 拦截状态&#xa;afterSaleType 售后类型&#xa;userId&#xa;createAdminId 创建人&#xa;handleAdminId 最后处理人&#xa;lastAdminId 处理人&#xa;createRole 创建人角色&#xa;createTime&#xa;updateTime &#xa;checkTime 审核时间&#xa;finishTime 完成时间&#xa;extInfo 备注扩展&#xa;reason 失败原因&#xa;aliPayRealName 支付宝姓名&#xa;aliPayName 支付宝账户&#xa;expressPrice 退物流费用&#xa;remark 用户备注&#xa;aimId 关联单据Id&#xa;mark 标记 pop&#xa;aimType 单据类型&#xa;sellId 分销商ID" style="align=left;strokeColor=none;fillColor=none;spacingLeft=4;fontSize=12;verticalAlign=top;resizable=0;rotatable=0;part=1;" vertex="1" parent="wQRTPKifDp7-bHwNGF8D-127">
          <mxGeometry y="30" width="140" as="geometry" />
        </mxCell>
        <mxCell id="wQRTPKifDp7-bHwNGF8D-129" value="monitor_node" style="swimlane;childLayout=stackLayout;horizontal=1;startSize=30;horizontalStack=0;rounded=1;fontSize=14;fontStyle=0;strokeWidth=2;resizeParent=0;resizeLast=1;shadow=0;dashed=0;align=center;" vertex="1" collapsed="1" parent="1">
          <mxGeometry x="330" y="380" width="120" height="30" as="geometry">
            <mxRectangle x="40" y="480" width="170" height="125" as="alternateBounds" />
          </mxGeometry>
        </mxCell>
        <mxCell id="wQRTPKifDp7-bHwNGF8D-130" value="id&#xa;monitorId&#xa;nodeType 类型 SEND_TIME&#xa;planTime 预计时间&#xa;realTime 节点时间&#xa;orderItemId " style="align=left;strokeColor=none;fillColor=none;spacingLeft=4;fontSize=12;verticalAlign=top;resizable=0;rotatable=0;part=1;" vertex="1" parent="wQRTPKifDp7-bHwNGF8D-129">
          <mxGeometry y="30" width="120" as="geometry" />
        </mxCell>
        <mxCell id="wQRTPKifDp7-bHwNGF8D-131" value="monitor_item" style="swimlane;childLayout=stackLayout;horizontal=1;startSize=30;horizontalStack=0;rounded=1;fontSize=14;fontStyle=0;strokeWidth=2;resizeParent=0;resizeLast=1;shadow=0;dashed=0;align=center;" vertex="1" collapsed="1" parent="1">
          <mxGeometry x="60" y="510" width="110" height="30" as="geometry">
            <mxRectangle x="290" y="590" width="180" height="160" as="alternateBounds" />
          </mxGeometry>
        </mxCell>
        <mxCell id="wQRTPKifDp7-bHwNGF8D-132" value="id&#xa;itemId&#xa;groupId&#xa;groupType 类型&#xa;supplierId 供应商ID&#xa;sellId 分销商ID&#xa;monitorType 标记需要监控类型&#xa;abnormalType 异常类型&#xa;" style="align=left;strokeColor=none;fillColor=none;spacingLeft=4;fontSize=12;verticalAlign=top;resizable=0;rotatable=0;part=1;" vertex="1" parent="wQRTPKifDp7-bHwNGF8D-131">
          <mxGeometry y="30" width="110" as="geometry" />
        </mxCell>
        <mxCell id="wQRTPKifDp7-bHwNGF8D-133" value="order_exchange" style="swimlane;childLayout=stackLayout;horizontal=1;startSize=30;horizontalStack=0;rounded=1;fontSize=14;fontStyle=0;strokeWidth=2;resizeParent=0;resizeLast=1;shadow=0;dashed=0;align=center;" vertex="1" collapsed="1" parent="1">
          <mxGeometry x="220" y="480" width="130" height="30" as="geometry">
            <mxRectangle x="260" y="620" width="230" height="260" as="alternateBounds" />
          </mxGeometry>
        </mxCell>
        <mxCell id="wQRTPKifDp7-bHwNGF8D-134" value="exchangeId &#xa;exchangeStatus 换货状态&#xa;returnId 退货单Id&#xa;exchangeOrderId 新订单Id&#xa;exchangeOrderParentId 新主订单Id&#xa;fromOrderId 旧订单Id&#xa;fromOrderParentId 旧主订单Id&#xa;fromSupplierId 供应商ID&#xa;confirmTime 确认时间&#xa;remark 备注&#xa;reasonType 换货原因&#xa;sellId 分销商ID" style="align=left;strokeColor=none;fillColor=none;spacingLeft=4;fontSize=12;verticalAlign=top;resizable=0;rotatable=0;part=1;" vertex="1" parent="wQRTPKifDp7-bHwNGF8D-133">
          <mxGeometry y="30" width="130" as="geometry" />
        </mxCell>
        <mxCell id="wQRTPKifDp7-bHwNGF8D-135" value="order_item" style="swimlane;childLayout=stackLayout;horizontal=1;startSize=30;horizontalStack=0;rounded=1;fontSize=14;fontStyle=0;strokeWidth=2;resizeParent=0;resizeLast=1;shadow=0;dashed=0;align=center;" vertex="1" collapsed="1" parent="1">
          <mxGeometry x="510" y="490" width="100" height="30" as="geometry">
            <mxRectangle x="370" y="640" width="250" height="440" as="alternateBounds" />
          </mxGeometry>
        </mxCell>
        <mxCell id="wQRTPKifDp7-bHwNGF8D-136" value="id&#xa;orderId&#xa;orderParentId&#xa;storeId 商家ID&#xa;itemId 商品ID&#xa;skuId 商品skuId&#xa;expressPrice 运费&#xa;supplierId 商家ID&#xa;userId&#xa;itemStatus&#xa;itemPrice 商品售价&#xa;promotionPrice 活动金额&#xa;couponPrice 优惠券金额&#xa;brandCouponPrice 品牌券金额&#xa;promotionCodePrice 优惠码抵扣价格&#xa;ispaid 是否付过款&#xa;refundId 退款id&#xa;procureItemId 对应的采购商品Id&#xa;orderTime 下单时间&#xa;bbtBrandName bbt网站品牌名&#xa;sellId 渠道id&#xa;virtualItemId 虚拟商品ID&#xa;virtualSkuId 虚拟skuID&#xa;exchangeId 换货单Id&#xa;itemType 商品类型&#xa;saleType 销售类型&#xa;balancePrice 余额支付金额&#xa;thirdPayPrice 第三方支付金额" style="align=left;strokeColor=none;fillColor=none;spacingLeft=4;fontSize=12;verticalAlign=top;resizable=0;rotatable=0;part=1;" vertex="1" parent="wQRTPKifDp7-bHwNGF8D-135">
          <mxGeometry y="30" width="100" as="geometry" />
        </mxCell>
      </root>
    </mxGraphModel>
  </diagram>
</mxfile>
